<svg xmlns="http://www.w3.org/2000/svg" viewBox="0 0 120 120">
  <defs>
    <linearGradient id="g" x1="0" y1="0" x2="1" y2="1">
      <stop offset="0%" stop-color="#4f46e5" />
      <stop offset="100%" stop-color="#22d3ee" />
    </linearGradient>
  </defs>
  <circle cx="60" cy="60" r="52" fill="url(#g)" />
  <path
    d="M60 28c-12 0-22 10-22 22 0 10 6 18 15 21v9c0 4 3 7 7 7s7-3 7-7v-9c9-3 15-11 15-21 0-12-10-22-22-22zm0 12a10 10 0 0 1 10 10c0 5-3 8-7 9-2 0-3 2-3 3v11h-0.2V62c0-1-1-3-3-3-4-1-7-4-7-9a10 10 0 0 1 10-10z"
    fill="#ffffff"
  />
</svg>
